<svg xmlns="http://www.w3.org/2000/svg" viewBox="0 0 720 520" role="img" aria-labelledby="title desc">
  <title id="title">多运动训练视觉</title>
  <desc id="desc">跑步、跳绳、游泳和户外运动组成的活力插画。</desc>
  <defs>
    <linearGradient id="track" x1="0" y1="0" x2="1" y2="1">
      <stop offset="0" stop-color="#d8fb58"/>
      <stop offset="1" stop-color="#76c8ee"/>
    </linearGradient>
    <linearGradient id="skin" x1="0" y1="0" x2="0" y2="1">
      <stop offset="0" stop-color="#ffd9b2"/>
      <stop offset="1" stop-color="#f0aa72"/>
    </linearGradient>
  </defs>

  <rect x="58" y="70" width="604" height="374" rx="42" fill="#f8fff7" opacity=".13"/>
  <path d="M58 346c92-82 185-92 280-28s188 50 324-42v168H58Z" fill="#76c8ee" opacity=".34"/>
  <path d="M92 372c100-68 186-64 258 12 72 77 168 72 288-14" fill="none" stroke="#d8fb58" stroke-width="16" stroke-linecap="round" opacity=".88"/>
  <path d="M98 406c128-60 224-53 288 20 62 70 146 68 250-6" fill="none" stroke="#ffffff" stroke-width="3" stroke-dasharray="12 16" opacity=".48"/>

  <g transform="translate(356 78)">
    <circle cx="80" cy="54" r="34" fill="url(#skin)"/>
    <path d="M60 108c34-16 78-8 104 22l-26 76-92 4-18-64c-5-17 8-32 32-38Z" fill="#d8fb58"/>
    <path d="M72 124l50 42-18 104" fill="none" stroke="#10251d" stroke-width="16" stroke-linecap="round" stroke-linejoin="round"/>
    <path d="M126 170l70 44 58-22" fill="none" stroke="#ffd9b2" stroke-width="16" stroke-linecap="round" stroke-linejoin="round"/>
    <path d="M64 206l-68 66 52 42" fill="none" stroke="#ffd9b2" stroke-width="18" stroke-linecap="round" stroke-linejoin="round"/>
    <path d="M108 268l22 98 74 14" fill="none" stroke="#ffd9b2" stroke-width="18" stroke-linecap="round" stroke-linejoin="round"/>
    <path d="M78 80c28 9 58 3 86-20-8-30-33-50-66-52-34-2-60 18-70 52 13 2 30 8 50 20Z" fill="#10251d"/>
    <path d="M168 136c42-38 78-42 110-12" fill="none" stroke="#ffffff" stroke-width="6" stroke-linecap="round" opacity=".68"/>
  </g>

  <g transform="translate(114 132)">
    <rect x="0" y="0" width="170" height="124" rx="24" fill="#ffffff" opacity=".9"/>
    <path d="M28 80c24-36 52-40 84-12s58 22 78-22" fill="none" stroke="#174d35" stroke-width="10" stroke-linecap="round"/>
    <path d="M28 96c28-22 54-20 78 4 24 23 52 22 84-3" fill="none" stroke="#76c8ee" stroke-width="8" stroke-linecap="round"/>
    <circle cx="48" cy="40" r="18" fill="#f5c462"/>
  </g>

  <g transform="translate(102 280)">
    <rect x="0" y="0" width="210" height="96" rx="26" fill="#10251d" opacity=".92"/>
    <path d="M40 70c0-42 28-66 66-66s66 24 66 66" fill="none" stroke="#d8fb58" stroke-width="8" stroke-linecap="round"/>
    <path d="M106 22v56" stroke="#ffffff" stroke-width="10" stroke-linecap="round"/>
    <circle cx="70" cy="74" r="12" fill="#76c8ee"/>
    <circle cx="142" cy="74" r="12" fill="#ef7d55"/>
  </g>

  <g transform="translate(506 318)">
    <rect x="0" y="0" width="104" height="104" rx="30" fill="url(#track)"/>
    <path d="M26 64h50M34 44h42M44 24h24" stroke="#10251d" stroke-width="9" stroke-linecap="round"/>
  </g>
</svg>
